<svg width="40" height="40" viewBox="0 0 40 40" fill="none" xmlns="http://www.w3.org/2000/svg">
<path d="M28.75 28.75C35.4207 27.1442 40 23.8291 40 20C40 16.1709 35.4207 12.8558 28.75 11.25C29.4363 13.8829 29.8225 16.8547 29.8225 20C29.8225 23.1453 29.4363 26.1171 28.75 28.75Z" fill="#404040"/>
<path d="M11.25 28.75C4.57932 27.1442 0 23.8291 0 20C0 16.1709 4.57932 12.8558 11.25 11.25C10.5637 13.8829 10.1775 16.8547 10.1775 20C10.1775 23.1453 10.5637 26.1171 11.25 28.75Z" fill="#404040"/>
<path d="M11.25 28.75C12.8558 35.4207 16.1709 40 20 40C23.8291 40 27.1442 35.4207 28.75 28.75C26.1171 29.4363 23.1453 29.8225 20 29.8225C16.8547 29.8225 13.8829 29.4363 11.25 28.75Z" fill="#FFD11A"/>
<path d="M11.25 11.25C12.8558 4.57932 16.1709 -1.74166e-07 20 0C23.8291 1.74166e-07 27.1442 4.57932 28.75 11.25C26.1171 10.5637 23.1453 10.1775 20 10.1775C16.8547 10.1775 13.8829 10.5637 11.25 11.25Z" fill="#FFD11A"/>
</svg>
